<svg xmlns="http://www.w3.org/2000/svg" width="42" height="41" fill="none"><path fill="url(#a)" d="M.342.865h41.025v40H.342v-40Z"/><path fill="url(#b)" d="M25.197 9.549c6.205 0 11.248 5.094 11.248 11.299 0 6.205-5.043 11.299-11.248 11.299h-10c-5.196 0-9.419-4.274-9.419-9.47 0-5.197 4.223-9.453 9.42-9.453.546 0 1.076.034 1.589.12 2.068-2.325 5.06-3.795 8.41-3.795Zm0-.496a11.701 11.701 0 0 0-8.598 3.743 9.725 9.725 0 0 0-1.419-.102 9.7 9.7 0 0 0-3.863.786 9.598 9.598 0 0 0-3.145 2.137 9.707 9.707 0 0 0-2.12 3.162 10.005 10.005 0 0 0-.786 3.864 9.7 9.7 0 0 0 .786 3.863 10.082 10.082 0 0 0 2.12 3.162c.906.906 1.965 1.675 3.145 2.171 1.23.513 2.53.82 3.863.82h10c1.59 0 3.128-.358 4.564-.974a11.851 11.851 0 0 0 3.727-2.547 11.547 11.547 0 0 0 2.513-3.743c.615-1.453.923-2.992.923-4.581 0-1.59-.308-3.129-.923-4.582a12.018 12.018 0 0 0-2.513-3.743 11.476 11.476 0 0 0-3.727-2.513 11.383 11.383 0 0 0-4.547-.923Zm-11.316 13.88a.861.861 0 0 1 .017-1.213.862.862 0 0 1 1.214.017l4.564 4.564a7.777 7.777 0 0 0 5.521 2.29 7.791 7.791 0 0 0 7.795-7.794 7.791 7.791 0 0 0-7.795-7.795 7.786 7.786 0 0 0-4.854 1.692 9.33 9.33 0 0 0-1.642-.855 9.495 9.495 0 0 1 6.496-2.564 9.513 9.513 0 0 1 9.522 9.522 9.513 9.513 0 0 1-9.522 9.52 9.481 9.481 0 0 1-6.735-2.785l-4.581-4.599Zm5.248-4.82a5.913 5.913 0 0 0-3.932-1.47c-3.299 0-5.983 2.666-5.983 5.965a5.99 5.99 0 0 0 5.983 5.983l1.915.052c.632.65 1.35 1.282 2.12 1.777h-4.035c-4.256 0-7.71-3.487-7.71-7.743 0-4.257 3.454-7.727 7.693-7.727 1.983 0 3.795.735 5.163 1.966l3.47 3.556a.861.861 0 0 1-.017 1.213.861.861 0 0 1-1.214-.017l-3.453-3.555Z"/><defs><radialGradient id="a" cx="0" cy="0" r="1" gradientTransform="translate(16.352 -2.212) scale(65.5795)" gradientUnits="userSpaceOnUse"><stop stop-color="#EC202B"/><stop offset=".146" stop-color="#E2202A"/><stop offset=".399" stop-color="#C51E26"/><stop offset=".727" stop-color="#981C20"/><stop offset="1" stop-color="#6D1A1B"/></radialGradient><linearGradient id="b" x1="5.278" x2="36.935" y1="20.849" y2="20.849" gradientUnits="userSpaceOnUse"><stop offset=".14" stop-color="#fff"/><stop offset="1" stop-color="#EAECEA"/></linearGradient></defs></svg>