<svg xmlns="http://www.w3.org/2000/svg" width="34" height="41" fill="none"><path fill="#000" d="M33.092 32.037a21.75 21.75 0 0 1-2.15 3.867c-1.131 1.612-2.057 2.728-2.77 3.348-1.107 1.017-2.292 1.538-3.561 1.567-.911 0-2.01-.259-3.289-.785-1.283-.523-2.462-.782-3.54-.782-1.131 0-2.344.259-3.641.782-1.3.526-2.346.8-3.146.827-1.217.052-2.43-.483-3.641-1.61-.773-.673-1.74-1.829-2.898-3.466-1.242-1.748-2.264-3.775-3.064-6.086C.535 27.203.105 24.785.105 22.445c0-2.68.58-4.992 1.74-6.93.912-1.556 2.125-2.784 3.643-3.685a9.8 9.8 0 0 1 4.925-1.39c.967 0 2.235.3 3.81.887 1.57.59 2.58.888 3.021.888.331 0 1.451-.35 3.351-1.046 1.796-.647 3.312-.914 4.554-.809 3.366.272 5.894 1.598 7.575 3.988-3.01 1.824-4.498 4.378-4.469 7.655.027 2.552.953 4.676 2.773 6.363a9.112 9.112 0 0 0 2.77 1.817 29.988 29.988 0 0 1-.706 1.854ZM25.374 1.665c0 2-.731 3.868-2.188 5.597-1.758 2.055-3.884 3.243-6.19 3.056a6.237 6.237 0 0 1-.046-.758c0-1.92.836-3.976 2.32-5.656.742-.851 1.684-1.559 2.827-2.123 1.141-.556 2.22-.863 3.235-.916.03.267.042.535.042.8Z"/></svg>