<svg xmlns="http://www.w3.org/2000/svg" width="41" height="41" fill="none"><mask id="a" width="41" height="41" x="0" y="0" maskUnits="userSpaceOnUse" style="mask-type:luminance"><path fill="#fff" d="M20.914 40.979c11.046 0 20-8.955 20-20 0-11.046-8.954-20-20-20s-20 8.954-20 20c0 11.045 8.954 20 20 20Z"/></mask><g mask="url(#a)"><path fill="#DB4437" d="M4.088.979v24.545h8.952l7.873-13.636h20V.978H4.088Z"/><path fill="url(#b)" d="M4.088.979v24.545h8.952l7.873-13.636h20V.978H4.088Z"/></g><mask id="c" width="41" height="41" x="0" y="0" maskUnits="userSpaceOnUse" style="mask-type:luminance"><path fill="#fff" d="M20.914 40.979c11.046 0 20-8.955 20-20 0-11.046-8.954-20-20-20s-20 8.954-20 20c0 11.045 8.954 20 20 20Z"/></mask><g mask="url(#c)"><path fill="#3E2723" fill-opacity=".15" d="M13.256 25.445 4.204 9.92l-.132.227 8.987 15.409.197-.111Z"/></g><mask id="d" width="41" height="41" x="0" y="0" maskUnits="userSpaceOnUse" style="mask-type:luminance"><path fill="#fff" d="M20.914 40.979c11.046 0 20-8.955 20-20 0-11.046-8.954-20-20-20s-20 8.954-20 20c0 11.045 8.954 20 20 20Z"/></mask><g mask="url(#d)"><path fill="#0F9D58" d="M.914 40.979h19.039l8.836-8.837v-6.618H13.041L.914 4.724V40.98Z"/><path fill="url(#e)" d="M.914 40.979h19.039l8.836-8.837v-6.618H13.041L.914 4.724V40.98Z"/></g><mask id="f" width="41" height="41" x="0" y="0" maskUnits="userSpaceOnUse" style="mask-type:luminance"><path fill="#fff" d="M20.914 40.979c11.046 0 20-8.955 20-20 0-11.046-8.954-20-20-20s-20 8.954-20 20c0 11.045 8.954 20 20 20Z"/></mask><g mask="url(#f)"><path fill="#263238" fill-opacity=".15" d="m28.605 25.826-.189-.109-8.725 15.262h.262l8.659-15.146-.007-.007Z"/></g><mask id="g" width="41" height="41" x="0" y="0" maskUnits="userSpaceOnUse" style="mask-type:luminance"><path fill="#fff" d="M20.914 40.979c11.046 0 20-8.955 20-20 0-11.046-8.954-20-20-20s-20 8.954-20 20c0 11.045 8.954 20 20 20Z"/></mask><g mask="url(#g)"><mask id="h" width="29" height="37" x="0" y="4" maskUnits="userSpaceOnUse" style="mask-type:luminance"><path fill="#fff" d="M.914 40.979h19.039l8.836-8.837v-6.618H13.041L.914 4.724V40.98Z"/></mask><g mask="url(#h)"><path fill="#FFCD40" d="m20.915 11.888 7.875 13.636-8.837 15.455h20.961V11.888h-20Z"/><path fill="url(#i)" d="m20.915 11.888 7.875 13.636-8.837 15.455h20.961V11.888h-20Z"/></g></g><mask id="j" width="41" height="41" x="0" y="0" maskUnits="userSpaceOnUse" style="mask-type:luminance"><path fill="#fff" d="M20.914 40.979c11.046 0 20-8.955 20-20 0-11.046-8.954-20-20-20s-20 8.954-20 20c0 11.045 8.954 20 20 20Z"/></mask><g mask="url(#j)"><path fill="#FFCD40" d="m20.915 11.888 7.875 13.636-8.837 15.454h20.961v-29.09h-20Z"/><path fill="url(#k)" d="m20.915 11.888 7.875 13.636-8.837 15.454h20.961v-29.09h-20Z"/></g><mask id="l" width="41" height="41" x="0" y="0" maskUnits="userSpaceOnUse" style="mask-type:luminance"><path fill="#fff" d="M20.914 40.979c11.046 0 20-8.955 20-20 0-11.046-8.954-20-20-20s-20 8.954-20 20c0 11.045 8.954 20 20 20Z"/></mask><g mask="url(#l)"><mask id="m" width="22" height="30" x="19" y="11" maskUnits="userSpaceOnUse" style="mask-type:luminance"><path fill="#fff" d="m20.913 11.887 7.875 13.637-8.837 15.454h20.962v-29.09h-20Z"/></mask><g mask="url(#m)"><path fill="#DB4437" d="M4.088.978v24.546h8.952l7.873-13.637h20V.978H4.088Z"/><path fill="url(#n)" d="M4.088.978v24.546h8.952l7.873-13.637h20V.978H4.088Z"/></g></g><mask id="o" width="41" height="41" x="0" y="0" maskUnits="userSpaceOnUse" style="mask-type:luminance"><path fill="#fff" d="M20.914 40.979c11.046 0 20-8.955 20-20 0-11.046-8.954-20-20-20s-20 8.954-20 20c0 11.045 8.954 20 20 20Z"/></mask><g mask="url(#o)"><path fill="url(#p)" d="M20.914 11.888v4.761l17.818-4.761H20.914Z"/></g><mask id="q" width="41" height="41" x="0" y="0" maskUnits="userSpaceOnUse" style="mask-type:luminance"><path fill="#fff" d="M20.914 40.979c11.046 0 20-8.955 20-20 0-11.046-8.954-20-20-20s-20 8.954-20 20c0 11.045 8.954 20 20 20Z"/></mask><g mask="url(#q)"><mask id="r" width="37" height="26" x="4" y="0" maskUnits="userSpaceOnUse" style="mask-type:luminance"><path fill="#fff" d="M4.088.979v9.168l8.952 15.377 7.873-13.636h20V.978H4.088Z"/></mask><g mask="url(#r)"><path fill="#0F9D58" d="M.914 40.979h19.039l8.836-8.837v-6.618H13.041L.914 4.724V40.98Z"/><path fill="url(#s)" d="M.914 40.979h19.039l8.836-8.837v-6.618H13.041L.914 4.724V40.98Z"/></g></g><mask id="t" width="41" height="41" x="0" y="0" maskUnits="userSpaceOnUse" style="mask-type:luminance"><path fill="#fff" d="M20.914 40.979c11.046 0 20-8.955 20-20 0-11.046-8.954-20-20-20s-20 8.954-20 20c0 11.045 8.954 20 20 20Z"/></mask><g mask="url(#t)"><path fill="url(#u)" d="M4.09 10.172 17.1 23.18l-4.059 2.343L4.09 10.172Z"/></g><mask id="v" width="41" height="41" x="0" y="0" maskUnits="userSpaceOnUse" style="mask-type:luminance"><path fill="#fff" d="M20.914 40.979c11.046 0 20-8.955 20-20 0-11.046-8.954-20-20-20s-20 8.954-20 20c0 11.045 8.954 20 20 20Z"/></mask><g mask="url(#v)"><path fill="url(#w)" d="M19.967 40.954 24.73 23.18l4.06 2.343-8.823 15.43Z"/></g><mask id="x" width="41" height="41" x="0" y="0" maskUnits="userSpaceOnUse" style="mask-type:luminance"><path fill="#fff" d="M20.914 40.979c11.046 0 20-8.955 20-20 0-11.046-8.954-20-20-20s-20 8.954-20 20c0 11.045 8.954 20 20 20Z"/></mask><g mask="url(#x)"><path fill="#F1F1F1" d="M20.915 30.07a9.09 9.09 0 1 0 0-18.182 9.09 9.09 0 0 0 0 18.181Z"/><path fill="#4285F4" d="M20.915 28.251a7.273 7.273 0 1 0 0-14.545 7.273 7.273 0 0 0 0 14.545Z"/></g><mask id="y" width="41" height="41" x="0" y="0" maskUnits="userSpaceOnUse" style="mask-type:luminance"><path fill="#fff" d="M20.914 40.979c11.046 0 20-8.955 20-20 0-11.046-8.954-20-20-20s-20 8.954-20 20c0 11.045 8.954 20 20 20Z"/></mask><g mask="url(#y)"><path fill="#3E2723" fill-opacity=".2" d="M20.913 11.66c-5.02 0-9.09 4.071-9.09 9.091v.228c0-5.02 4.07-9.091 9.09-9.091h20v-.227h-20Z"/><path fill="#fff" fill-opacity=".1" d="M28.778 25.524c-1.573 2.714-4.503 4.546-7.864 4.546-3.364 0-6.293-1.832-7.866-4.546h-.009L.914 4.724v.227l12.127 20.8h.01c1.572 2.714 4.502 4.546 7.865 4.546 3.362 0 6.291-1.83 7.864-4.546h.011v-.227h-.013Z"/><path fill="#3E2723" d="M21.141 11.888c-.039 0-.075.004-.114.007 4.968.061 8.978 4.102 8.978 9.084 0 4.982-4.01 9.023-8.978 9.084.039 0 .075.007.114.007a9.091 9.091 0 0 0 0-18.182Z" opacity=".1"/><path fill="#fff" fill-opacity=".2" d="M28.869 25.826a9.062 9.062 0 0 0 .796-7.284c.215.778.34 1.594.34 2.44 0 1.654-.447 3.2-1.22 4.535l.005.01-8.837 15.454h.264l8.657-15.145-.005-.01Z"/></g><mask id="z" width="41" height="41" x="0" y="0" maskUnits="userSpaceOnUse" style="mask-type:luminance"><path fill="#fff" d="M20.914 40.979c11.046 0 20-8.955 20-20 0-11.046-8.954-20-20-20s-20 8.954-20 20c0 11.045 8.954 20 20 20Z"/></mask><g mask="url(#z)"><path fill="#fff" fill-opacity=".2" d="M20.914 1.206c11.007 0 19.936 8.893 19.998 19.886l.002-.113c0-11.046-8.955-20-20-20s-20 8.954-20 20l.002.113C.978 10.1 9.907 1.206 20.914 1.206Z"/><path fill="#3E2723" fill-opacity=".15" d="M20.914 40.751c11.007 0 19.936-8.893 19.998-19.886l.002.114c0 11.045-8.955 20-20 20s-20-8.955-20-20l.002-.114c.062 10.993 8.991 19.886 19.998 19.886Z"/></g><path fill="url(#A)" d="M20.914 40.979c11.046 0 20-8.955 20-20 0-11.046-8.954-20-20-20s-20 8.954-20 20c0 11.045 8.954 20 20 20Z"/><defs><linearGradient id="b" x1="5.762" x2="17.694" y1="16.211" y2="9.241" gradientUnits="userSpaceOnUse"><stop stop-color="#A52714" stop-opacity=".6"/><stop offset=".66" stop-color="#A52714" stop-opacity="0"/></linearGradient><linearGradient id="e" x1="24.294" x2="11.036" y1="36.547" y2="28.781" gradientUnits="userSpaceOnUse"><stop stop-color="#055524" stop-opacity=".4"/><stop offset=".33" stop-color="#055524" stop-opacity="0"/></linearGradient><linearGradient id="i" x1="26.792" x2="30.13" y1="10.48" y2="25.099" gradientUnits="userSpaceOnUse"><stop stop-color="#EA6100" stop-opacity=".3"/><stop offset=".66" stop-color="#EA6100" stop-opacity="0"/></linearGradient><linearGradient id="k" x1="26.792" x2="30.13" y1="10.479" y2="25.099" gradientUnits="userSpaceOnUse"><stop stop-color="#EA6100" stop-opacity=".3"/><stop offset=".66" stop-color="#EA6100" stop-opacity="0"/></linearGradient><linearGradient id="n" x1="5.762" x2="17.694" y1="16.21" y2="9.241" gradientUnits="userSpaceOnUse"><stop stop-color="#A52714" stop-opacity=".6"/><stop offset=".66" stop-color="#A52714" stop-opacity="0"/></linearGradient><linearGradient id="s" x1="24.294" x2="11.036" y1="36.547" y2="28.781" gradientUnits="userSpaceOnUse"><stop stop-color="#055524" stop-opacity=".4"/><stop offset=".33" stop-color="#055524" stop-opacity="0"/></linearGradient><radialGradient id="p" cx="0" cy="0" r="1" gradientTransform="translate(20.046 11.876) scale(19.1086)" gradientUnits="userSpaceOnUse"><stop stop-color="#3E2723" stop-opacity=".2"/><stop offset="1" stop-color="#3E2723" stop-opacity="0"/></radialGradient><radialGradient id="u" cx="0" cy="0" r="1" gradientTransform="translate(4.07 10.188) scale(17.7373)" gradientUnits="userSpaceOnUse"><stop stop-color="#3E2723" stop-opacity=".2"/><stop offset="1" stop-color="#3E2723" stop-opacity="0"/></radialGradient><radialGradient id="w" cx="0" cy="0" r="1" gradientTransform="translate(20.878 21.01) scale(19.9705)" gradientUnits="userSpaceOnUse"><stop stop-color="#263238" stop-opacity=".2"/><stop offset="1" stop-color="#263238" stop-opacity="0"/></radialGradient><radialGradient id="A" cx="0" cy="0" r="1" gradientTransform="translate(6.888 6.436) scale(40.1705)" gradientUnits="userSpaceOnUse"><stop stop-color="#fff" stop-opacity=".1"/><stop offset="1" stop-color="#fff" stop-opacity="0"/></radialGradient></defs></svg>