<svg xmlns="http://www.w3.org/2000/svg" width="41" height="41" fill="none"><path fill="#000" fill-rule="evenodd" d="M20.629.4C9.6.4.629 9.37.629 20.4c0 11.027 8.972 20 20 20s20-8.973 20-20c0-11.029-8.972-20-20-20Zm0 37.409c-9.6 0-17.41-7.81-17.41-17.41 0-9.6 7.81-17.41 17.41-17.41 9.6 0 17.409 7.81 17.409 17.41 0 9.6-7.81 17.41-17.41 17.41Zm6.794-23.243h.158V13.8h.285v-.135h-.726v.135h.283v.765Zm.695-.696h.002l.25.696h.128l.25-.696h.003v.696h.149v-.9h-.218l-.241.704h-.005l-.247-.704h-.221v.9h.15v-.696Zm-4.543-.205h-9.839l-1.492 2.4h9.827l1.504-2.4Zm2.011.023-6.015 9.578H12.9l1.54-2.401h3.998l1.528-2.4h-9.244l-1.528 2.4h2.19l-3.038 4.793h12.68l4.684-7.386 1.708 2.593h-1.54l-1.458 2.4h4.56l1.583 2.393h2.909l-7.885-11.97Z" clip-rule="evenodd"/></svg>