<svg xmlns="http://www.w3.org/2000/svg" width="41" height="41" fill="none"><path fill="#0096D6" d="M40.541 20.333c0-11.046-8.954-20-20-20-.301 0-.6.008-.899.022l-4.09 11.243h3.562c2.12 0 3.262 1.633 2.537 3.626l-5.046 13.868-4.238-.001 5.416-14.864h-3.186L9.182 29.09H4.943l6.367-17.493h.001l3.83-10.526C6.72 3.428.541 11.159.541 20.333c0 9.447 6.55 17.364 15.357 19.457l3.711-10.2h.003L26.16 11.6h7.804c2.122 0 3.263 1.632 2.538 3.625l-4.434 12.18c-.338.928-1.422 1.687-2.409 1.687h-5.625l-4.087 11.233c.197.006.396.01.594.01 11.046 0 20-8.955 20-20Z"/><path fill="#0096D6" d="M32.642 14.216h-3.184l-4.46 12.237h3.184l4.46-12.237Z"/></svg>