<svg xmlns="http://www.w3.org/2000/svg" width="139" height="32" fill="none"><path fill="#FAFAFA" d="M15.596 15.756h11.592a.31.31 0 0 1 .288.288v.072c0 .144-.072.252-.216.288-.864.288-1.584 2.196-1.656 4.5v10.188c0 .108-.036.144-.108.144-.036 0-.072-.036-.108-.072A5.123 5.123 0 0 0 21.5 29.4c-.792 0-1.584.18-2.34.54-1.692.864-3.6 1.26-6.048 1.26C4.472 31.2.08 24.288.08 15.756S3.788.312 13.436.312c6.084 0 10.188 2.664 11.736 7.02.36 1.044.54 1.944.54 2.736 0 2.484-1.656 3.744-3.78 3.924h-.396c-2.088 0-3.888-1.296-4.176-4.212-.468-4.896-1.188-8.856-3.924-8.856-3.132 0-5.184 3.996-5.184 10.908v.864c.252 10.548 4.932 14.22 8.568 14.58h.072c.144 0 .252-.144.252-.288v-5.724c0-2.448-.72-4.572-1.62-4.86-.144-.036-.216-.144-.216-.288v-.072c0-.144.108-.288.288-.288Zm32.93 9.576a.303.303 0 0 1 .144.252c0 .036 0 .072-.036.108-1.008 2.304-3.96 5.508-9.216 5.508-6.552 0-10.44-4.752-10.44-10.656 0-.252 0-.54.036-.792 0-.216.036-.396.036-.612.576-5.22 4.32-9.216 10.368-9.216 7.02 0 9.54 4.716 9.972 9.216 0 .072 0 .144.036.216 0 .216-.144.396-.36.396H37.294a.323.323 0 0 0-.324.324c.072 1.44.612 7.272 6.228 7.272 1.548 0 3.96-.72 4.932-1.944.072-.072.144-.108.216-.108.072 0 .108 0 .18.036Zm-9.108-14.796c-1.656 0-2.484 2.988-2.484 7.956v.324c0 .18.18.324.36.324h3.852a.36.36 0 0 0 .36-.36c-.072-3.852-.432-8.244-2.088-8.244Zm27.964 7.632c-.216.036-.432.036-.648.036-2.412 0-3.528-1.656-3.708-4.176-.108-1.404-.792-1.8-1.188-1.8-.396 0-.756.108-1.512 1.584-.108.216-.18.432-.18.684v11.34c0 2.376.684 4.428 1.548 4.716.108.036.216.18.216.288v.072a.31.31 0 0 1-.288.288H50.606a.31.31 0 0 1-.288-.288v-.072c0-.108.108-.252.216-.288 1.008-.288 1.764-2.448 1.764-4.932V16.8c0-2.448-.504-4.32-1.656-4.86a.314.314 0 0 1-.216-.288v-.036c0-.18.144-.288.288-.288h.9c1.26 0 2.7-.072 4.284-.288 1.692-.288 2.7-.684 3.852-1.08.036 0 .072-.036.108-.036.144 0 .288.144.288.324v2.808c0 .036.036.072.072.072s.072 0 .072-.036c1.188-2.232 2.952-3.708 5.4-3.708 2.016 0 3.384 1.008 4.176 2.34.396.612.648 1.548.648 2.52 0 1.764-.828 3.6-3.132 3.924Zm14.785-8.244c6.588 0 10.44 4.752 10.44 10.62 0 5.904-3.852 10.656-10.44 10.656-6.552 0-10.404-4.752-10.404-10.656 0-5.868 3.852-10.62 10.404-10.62Zm0 20.664c2.16 0 2.448-4.5 2.448-10.044 0-5.544-.288-10.044-2.448-10.044-2.124 0-2.412 4.5-2.412 10.044 0 5.544.288 10.044 2.412 10.044Zm36.143-.036c.108.072.216.144.216.288v.072c0 .144-.144.288-.324.288h-6.012c-1.836 0-3.348-1.44-3.384-3.276 0-.036 0-.036-.036-.036 0 0-.036 0-.036.036-1.152 2.016-3.888 3.276-6.372 3.276-5.436 0-6.336-4.644-6.336-7.308v-7.2c0-2.376-.648-4.428-1.512-4.716-.144-.072-.216-.18-.216-.288v-.072c0-.18.108-.288.288-.288h.612c1.224 0 2.628-.072 4.14-.36a24.932 24.932 0 0 0 4.14-1.008c.036 0 .072-.036.108-.036.18 0 .324.144.324.324v14.184c0 3.276.18 4.896 2.088 4.896.36 0 1.62-.216 2.7-2.196.072-.072.108-.216.108-.324V16.692c0-2.376-.684-4.428-1.548-4.716-.144-.072-.216-.18-.216-.288v-.072c0-.18.144-.288.288-.288h.792c1.188 0 2.556-.072 4.068-.324a22.446 22.446 0 0 0 4.032-1.044c.036 0 .072-.036.108-.036.18 0 .324.144.324.324v15.588c0 2.448.468 4.212 1.656 4.716Zm9.122-17.604c0 5.472 11.34 5.904 11.376 12.276v.036c0 4.608-5.544 5.904-9.108 5.94-2.7 0-6.156-.612-7.992-1.944-1.008-.756-1.476-1.8-1.476-2.808 0-1.44 1.008-2.772 2.844-2.772h.072c1.62 0 2.88 1.368 2.916 2.952 0 1.908.18 3.96 2.808 3.96 1.692 0 2.88-1.224 2.88-2.664 0-4.464-11.232-5.976-11.268-11.772v-.036c0-5.184 5.4-6.192 8.64-6.192h.144c2.16 0 5.796.9 7.524 2.124.972.72 1.44 1.728 1.44 2.628 0 1.44-1.044 2.7-2.808 2.736h-.108c-1.476 0-2.52-1.188-2.808-2.628-.576-2.988-1.296-4.248-3.06-4.248-1.008 0-2.016 1.044-2.016 2.412Z"/></svg>