<svg xmlns="http://www.w3.org/2000/svg" width="41" height="41" fill="none"><path fill="url(#a)" d="m29.479 14.28-.015-.006a.061.061 0 0 1-.024-.014.114.114 0 0 1-.029-.097l.806-4.93L34 13.016l-3.933 1.673a.086.086 0 0 1-.034.006h-.016a.108.108 0 0 1-.02-.017 1.792 1.792 0 0 0-.517-.398Zm5.485-.3 4.044 4.043c.84.841 1.26 1.26 1.413 1.747.023.072.042.143.056.218l-9.663-4.093a.428.428 0 0 0-.015-.006c-.039-.016-.084-.034-.084-.073 0-.04.046-.059.085-.074l.012-.006 4.152-1.756Zm5.349 7.305c-.209.393-.616.8-1.304 1.489l-4.56 4.558-5.895-1.228-.032-.006c-.052-.009-.107-.018-.107-.065a1.78 1.78 0 0 0-.683-1.245c-.024-.023-.018-.061-.01-.096l.001-.014 1.11-6.808.003-.023c.007-.052.016-.113.063-.113a1.805 1.805 0 0 0 1.21-.694c.01-.01.016-.021.028-.028.034-.015.073 0 .108.015l10.068 4.258ZM33.4 28.38l-7.496 7.497 1.283-7.887.002-.01a.147.147 0 0 1 .006-.03c.01-.026.038-.036.064-.046l.013-.006c.28-.12.529-.304.725-.54.025-.028.055-.056.093-.062a.096.096 0 0 1 .03 0l5.28 1.085Zm-9.083 9.084-.845.845-9.342-13.502a.485.485 0 0 0-.01-.014c-.015-.02-.03-.04-.027-.063 0-.017.011-.031.023-.044l.01-.013c.028-.042.052-.084.078-.129l.021-.036.003-.003c.015-.025.029-.05.054-.063.021-.01.052-.006.076 0l10.35 2.134a.17.17 0 0 1 .079.034c.013.014.016.028.02.045a1.832 1.832 0 0 0 1.072 1.226c.03.014.017.046.003.08a.244.244 0 0 0-.016.048l-1.549 9.455Zm-1.765 1.764c-.623.616-.99.943-1.405 1.074-.41.13-.849.13-1.258 0-.486-.154-.907-.574-1.747-1.414l-9.381-9.382 2.45-3.8a.159.159 0 0 1 .042-.05c.026-.018.064-.01.095 0a2.54 2.54 0 0 0 1.709-.086c.028-.01.056-.018.078.002.011.01.02.021.03.033l9.387 13.622ZM7.857 28.6 5.705 26.45l4.25-1.813a.089.089 0 0 1 .035-.007c.035 0 .056.035.075.068.043.065.088.13.135.192l.014.016c.012.018.004.036-.008.052l-2.349 3.644Zm-3.104-3.104L2.03 22.774c-.463-.463-.8-.8-1.033-1.088l8.28 1.717.03.005c.052.009.108.018.108.066 0 .052-.062.076-.114.096l-.024.01-4.524 1.917ZM.52 20.286c.01-.175.041-.349.094-.516.155-.487.574-.906 1.415-1.747l3.484-3.484c1.605 2.328 3.213 4.653 4.826 6.976.028.037.06.08.027.11a2.896 2.896 0 0 0-.412.551.167.167 0 0 1-.052.065c-.013.008-.028.005-.044.002h-.002L.521 20.286Zm5.926-6.68 4.683-4.685c.441.193 2.045.87 3.477 1.475 1.085.46 2.074.877 2.385 1.012.031.013.06.025.073.057.008.018.004.042 0 .062a2.09 2.09 0 0 0 .545 1.907c.032.031 0 .076-.027.115l-.014.022-4.757 7.368a.145.145 0 0 1-.045.052c-.025.016-.06.009-.09.001a2.37 2.37 0 0 0-.566-.077 3.12 3.12 0 0 0-.545.066h-.001c-.02.003-.04.007-.056-.006a.221.221 0 0 1-.047-.053l-5.015-7.316Zm5.631-5.631 6.065-6.065c.84-.84 1.26-1.26 1.747-1.414.41-.13.848-.13 1.258 0 .486.154.906.574 1.746 1.414l1.315 1.314-4.314 6.68a.163.163 0 0 1-.043.051c-.026.018-.062.01-.094 0a2.188 2.188 0 0 0-2.003.386c-.028.03-.07.013-.105-.003-.563-.245-4.945-2.097-5.572-2.363ZM25.125 4.14l3.983 3.983-.96 5.944v.016a.142.142 0 0 1-.008.04c-.011.02-.032.025-.053.031a1.907 1.907 0 0 0-.592.303c-.012.012-.023.023-.042.026a.12.12 0 0 1-.045-.008l-6.07-2.579-.01-.005c-.04-.015-.085-.034-.085-.074a2.293 2.293 0 0 0-.324-.954c-.029-.048-.061-.098-.036-.147l4.242-6.576Zm-4.102 8.978 5.69 2.41c.03.014.065.028.079.06.005.02.005.04 0 .06a1.414 1.414 0 0 0-.032.274v.16c0 .04-.04.056-.078.072l-.011.004c-.902.385-12.654 5.396-12.672 5.396-.018 0-.037 0-.055-.017-.03-.031 0-.075.029-.115l.014-.02 4.676-7.24.008-.013c.027-.044.059-.093.109-.093l.047.007c.106.015.2.028.295.028.71 0 1.367-.345 1.763-.935a.165.165 0 0 1 .035-.042c.029-.021.07-.01.103.004ZM14.507 22.7l12.81-5.463s.02 0 .037.017c.07.07.13.117.187.161l.028.018c.026.014.052.031.054.058 0 .01 0 .017-.002.026l-1.098 6.742-.004.027c-.007.052-.014.111-.063.111a1.804 1.804 0 0 0-1.433.884l-.005.008c-.014.024-.028.047-.052.06-.022.01-.05.006-.073 0l-10.216-2.107c-.01-.002-.159-.541-.17-.542Z"/><defs><radialGradient id="a" cx="0" cy="0" r="1" gradientTransform="matrix(40 0 0 40.044 20.5 .4)" gradientUnits="userSpaceOnUse"><stop stop-color="#20C6B7"/><stop offset="1" stop-color="#4D9ABF"/></radialGradient></defs></svg>